Coordinates
nRows=9
nColumns=38

# SIMM Motion File Header:
name Coordinates
datacolumns 38
datarows 9
otherdata 1
range 2.09399999999999990000 2.10199999999999990000

Units are S.I. units (second, meters, Newtons, ...)
Angles are in degrees.

endheader
time	pelvis_tilt	pelvis_list	pelvis_rotation	pelvis_tx	pelvis_ty	pelvis_tz	hip_flexion_r	hip_adduction_r	hip_rotation_r	knee_angle_r	ankle_angle_r	subtalar_angle_r	mtp_angle_r	hip_flexion_l	hip_adduction_l	hip_rotation_l	knee_angle_l	ankle_angle_l	subtalar_angle_l	mtp_angle_l	lumbar_extension	lumbar_bending	lumbar_rotation	arm_flex_r	arm_add_r	arm_rot_r	elbow_flex_r	pro_sup_r	wrist_flex_r	wrist_dev_r	arm_flex_l	arm_add_l	arm_rot_l	elbow_flex_l	pro_sup_l	wrist_flex_l	wrist_dev_l
      2.09399999999999990000	     -1.06039472145698000000	      3.26095103185515710000	     -2.25607531637001910000	      0.78088982156735809000	      1.00217086418130500000	     -0.29088772493920828000	    -16.04927228152499900000	     -1.39013401148622710000	      3.63467634659828230000	    -51.14449911808317500000	    -26.68751105515842800000	     -0.00000000000008439331	     -0.00000000000001856513	     24.32604599816696800000	      6.55263052116745030000	      6.63811206651447350000	     -7.26473286510588420000	      2.72532637339948240000	      0.00000000000000203883	      0.00000000000005116215	    -10.18108343808777700000	     -5.59095141340916690000	      9.81475487158106750000	    -16.29460011097880900000	    -27.36830105176670000000	    -12.91844804525002400000	    106.79780479831297000000	     75.04459419443377000000	      0.00000000000000023425	     -0.00000000000003467320	    -40.68837555336816800000	    -18.22694874224046300000	    -13.89214727764656000000	     99.98104181639591600000	     91.94291850163256200000	      0.00000000000003756149	      0.00000000000000259140
      2.09499999999999980000	     -0.98074807846936207000	      3.33943893304791220000	     -2.23306588664127760000	      0.78080031723738941000	      1.00191146692301490000	     -0.29092553123918513000	    -15.88425476626196400000	     -1.45573230587948910000	      3.61874771998238160000	    -51.80385896302547600000	    -26.61888839134268300000	     -0.00000000000008489141	     -0.00000000000001855465	     24.26456342437704100000	      6.68708686247234670000	      6.61732659074463660000	     -7.53792358373854210000	      2.64809317463894620000	      0.00000000000000204370	      0.00000000000005149692	    -10.30034437617760500000	     -5.69871780218931260000	      9.70394110949925090000	    -16.29190462985838600000	    -27.33164815990209800000	    -12.85515814454830700000	    106.73844072479586000000	     75.05203720948254900000	      0.00000000000000024464	     -0.00000000000003483495	    -40.55013861139102000000	    -18.27661492614235100000	    -13.87177935462190900000	     99.99946249252043600000	     91.95450075381127400000	      0.00000000000003777992	      0.00000000000000260025
      2.09600000000000010000	     -0.90146589569489521000	      3.42023004254004360000	     -2.20847585077624280000	      0.78070849362857464000	      1.00164311011400550000	     -0.29096518123209936000	    -15.71728227311462000000	     -1.52427518591145450000	      3.59750130115668390000	    -52.46227361807417800000	    -26.55292410871982200000	     -0.00000000000008538757	     -0.00000000000001854390	     24.20664028673492800000	      6.82531390655343450000	      6.59454275512895990000	     -7.82704176641167320000	      2.56666398643232750000	      0.00000000000000205255	      0.00000000000005183215	    -10.41950139490147000000	     -5.80892624453470760000	      9.59122883972173490000	    -16.29070656889332700000	    -27.29387425387400200000	    -12.79153447399729500000	    106.67729244896445000000	     75.05798574615963000000	      0.00000000000000025564	     -0.00000000000003499713	    -40.40894286604472500000	    -18.32983298874188800000	    -13.84845761775389900000	    100.01737928840835000000	     91.96483763731059500000	      0.00000000000003799842	      0.00000000000000261044
      2.09700000000000000000	     -0.82216339377044489000	      3.50319273983717410000	     -2.18213143098323710000	      0.78061454969961686000	      1.00136648271216530000	     -0.29100691193503431000	    -15.54894417120129000000	     -1.59564974171650610000	      3.57085811045605350000	    -53.11931613793808500000	    -26.48968865076380700000	     -0.00000000000008589052	     -0.00000000000001853383	     24.15165352366122800000	      6.96719394804628770000	      6.56990555239041200000	     -8.13142827170952030000	      2.48159145665406910000	      0.00000000000000206383	      0.00000000000005217487	    -10.53900494974146100000	     -5.92139090115044640000	      9.47645305471202980000	    -16.29095988067856000000	    -27.25503927628325900000	    -12.72763290972981000000	    106.61441312531015000000	     75.06238496667171500000	      0.00000000000000026715	     -0.00000000000003516003	    -40.26477809275773700000	    -18.38656593677842800000	    -13.82219411672512900000	    100.03486686636495000000	     91.97384847466396700000	      0.00000000000003821701	      0.00000000000000261608
      2.09799999999999990000	     -0.74259498036456761000	      3.58818938285160090000	     -2.15384404450024780000	      0.78051863735172500000	      1.00108206416428860000	     -0.29105098799556506000	    -15.37965759065792400000	     -1.66972353706717990000	      3.53874849694732110000	    -53.77461351905650100000	    -26.42918996366299900000	     -0.00000000000008639860	     -0.00000000000001852266	     24.09915903820476000000	      7.11259900800419140000	      6.54356734593061430000	     -8.45046536413069840000	      2.39327863203977520000	      0.00000000000000207837	      0.00000000000005251824	    -10.65914846508265900000	     -6.03590814709267140000	      9.35944249108850460000	    -16.29263704821517000000	    -27.21519451757882600000	    -12.66350859285042000000	    106.54984423854467000000	     75.06519506218995700000	      0.00000000000000027869	     -0.00000000000003532382	    -40.11765643473628300000	    -18.44676422911777900000	    -13.79300579535412500000	    100.05198264130577000000	     91.98145792915734400000	      0.00000000000003843475	      0.00000000000000261620
      2.09899999999999980000	     -0.66260848961469399000	      3.67508374361425760000	     -2.12355777316167950000	      0.78042086415448642000	      1.00079019557180190000	     -0.29109748834433635000	    -15.20968308141679500000	     -1.74638972791629970000	      3.50124993383823660000	    -54.42788234218817700000	    -26.37136821599476400000	     -0.00000000000008691716	     -0.00000000000001851247	     24.04881437307138700000	      7.26133954705676390000	      6.51557454735460250000	     -8.78352115864175790000	      2.30227796752261190000	      0.00000000000000210276	      0.00000000000005285386	    -10.78010586320446000000	     -6.15228867895155580000	      9.24016072411964730000	    -16.29572278060536000000	    -27.17439307891249800000	    -12.59921711465793400000	    106.48361689678481000000	     75.06638551636679300000	      0.00000000000000029009	     -0.00000000000003548781	    -39.96759988096167900000	    -18.51035959891535800000	    -13.76090955591997300000	    100.06876320225589000000	     91.98759964028366200000	      0.00000000000003865253	      0.00000000000000261502
      2.10000000000000010000	     -0.58214839069587154000	      3.76372678609277630000	     -2.09123444145950770000	      0.78032130145748702000	      1.00049107145304990000	     -0.29114647113240755000	    -15.03915365313686400000	     -1.82552255063682000000	      3.45848054501316280000	    -55.07888800055457100000	    -26.31611374525694600000	     -0.00000000000008743725	     -0.00000000000001850338	     24.00039941480494900000	      7.41320068995389910000	      6.48597253628513930000	     -9.12999202675973900000	      2.20923490189543200000	      0.00000000000000213405	      0.00000000000005318904	    -10.90193984565889500000	     -6.27032639511899600000	      9.11859550992619110000	    -16.30021428483201300000	    -27.13268675530458700000	    -12.53481387470129200000	    106.41575318215303000000	     75.06593548491626700000	      0.00000000000000030156	     -0.00000000000003565295	    -39.81464239328259700000	    -18.57727089414656200000	    -13.72592487956372600000	    100.08523042034297000000	     91.99221379960803800000	      0.00000000000003887163	      0.00000000000000261535
      2.10100000000000000000	     -0.50126198626863738000	      3.85395431820537170000	     -2.05687108580171920000	      0.78021997930696063000	      1.00018473132859250000	     -0.29119794919575187000	    -14.86806265915024400000	     -1.90697919025219980000	      3.41061665508436020000	    -55.72745430461773700000	    -26.26326773482215100000	     -0.00000000000008795855	     -0.00000000000001849356	     23.95382200615740200000	      7.56793333779543520000	      6.45478987906752180000	     -9.48930330986525840000	      2.11485375657597970000	      0.00000000000000216586	      0.00000000000005352517	    -11.02459457488241900000	     -6.38979929016671020000	      8.99477702010358370000	    -16.30612154760616400000	    -27.09012713829594400000	    -12.47035426543782900000	    106.34626465643943000000	     75.06383418675815700000	      0.00000000000000031281	     -0.00000000000003581861	    -39.65882657909659100000	    -18.64740394604007900000	    -13.68807297083065300000	    100.10138867815395000000	     91.99524887442348100000	      0.00000000000003909129	      0.00000000000000261680
      2.10199999999999990000	     -0.42010794121326939000	      3.94558724018584210000	     -2.02051253665214860000	      0.78011688068330098000	      0.99987104841411723000	     -0.29125187246372397000	    -14.69624993264271300000	     -1.99060316648500990000	      3.35790491112281450000	    -56.37347243051543400000	    -26.21262322148754700000	     -0.00000000000008847930	     -0.00000000000001848341	     23.90912764281561200000	      7.72524963915989820000	      6.42202059501579910000	     -9.86091114873140030000	      2.01979556108859270000	      0.00000000000000219632	      0.00000000000005386182	    -11.14788601550037200000	     -6.51047298292705710000	      8.86879112185260610000	    -16.31346721134527700000	    -27.04676553689859700000	    -12.40589366983909700000	    106.27515036572045000000	     75.06008199231625600000	      0.00000000000000032376	     -0.00000000000003598504	    -39.50020084917109400000	    -18.72065219077437300000	    -13.64737620710414800000	    100.11722208627707000000	     91.99666298418002000000	      0.00000000000003931148	      0.00000000000000261722
